<svg xmlns="http://www.w3.org/2000/svg" viewBox="0 0 128 128">
  <rect width="128" height="128" rx="24" fill="#1a73e8"/>
  <g fill="#fff">
    <rect x="32" y="38" width="64" height="6" rx="3"/>
    <rect x="32" y="54" width="44" height="6" rx="3"/>
    <rect x="32" y="70" width="54" height="6" rx="3"/>
    <rect x="32" y="86" width="36" height="6" rx="3"/>
  </g>
  <g transform="translate(82,76)" fill="#fff">
    <circle cx="14" cy="14" r="14" opacity="0.25"/>
    <path d="M14 6c-5 0-9.5 3-11.5 7.5C4.5 18 9 21 14 21s9.5-3 11.5-7.5C23.5 9 19 6 14 6zm0 11.5a4 4 0 110-8 4 4 0 010 8z"/>
  </g>
</svg>